<svg width="16pt" height="16pt" viewBox="0 0 16 16" xmlns="http://www.w3.org/2000/svg"><path d="M14.95 7.787a.263.263 0 00-.176-.133l-1.442-.368a.282.282 0 00-.353.221l-.324 1.31-1.251-.31-.06-.014a.37.37 0 00-.22.03.263.263 0 00-.132.176l-.324 1.31-1.31-.324a.282.282 0 00-.353.22l-.353 1.296-1.31-.324a.37.37 0 00-.22.03.263.263 0 00-.133.176l-.03.118-.338 1.383a.282.282 0 00.221.353l5.71 1.427c.073.015.132.03.206.03.368 0 .706-.25.794-.618l1.442-5.769a.303.303 0 00-.044-.22zm-5.46 2.53l1.28.324a.3.3 0 00.251-.03.274.274 0 00.132-.22l.25-1.015.825 1.089-.412 1.648-2.62-.662zm3.488 3.312a.233.233 0 01-.28.176l-5.43-1.354.207-.809 4.503 1.133c.014 0 .044.015.059.015h.014c.015 0 .03 0 .06-.015h.014c.03 0 .044-.014.059-.03a.263.263 0 00.132-.176l.515-2.075a.367.367 0 00-.044-.25l-.721-.942.706.177a.282.282 0 00.353-.22l.324-1.31.883.22zm-6.018-3.37a.295.295 0 00.294-.294V8.61h1.34a.295.295 0 00.293-.295V6.977h1.34a.295.295 0 00.294-.294V5.33h1.206a.295.295 0 00.295-.294V2.43a.823.823 0 00-.824-.824H1.824A.823.823 0 001 2.43v8.565c0 .456.368.824.824.824h3.487a.295.295 0 00.295-.294v-1.251zm1.339-2.237h-1.34a.295.295 0 00-.293.294V9.67H3.03v-.897l1.148-.869 1 .574c.118.06.25.044.354-.044l2.192-2.119.574.456zm-3.282 3.193H1.824a.232.232 0 01-.235-.235V2.43c0-.132.103-.235.235-.235h9.374c.132 0 .235.103.235.235v2.325h-1.192a.295.295 0 00-.294.295v1.354H8.77l-.868-.692c-.118-.088-.28-.088-.383.015L5.282 7.86l-.971-.559c-.103-.059-.235-.059-.324.015L2.56 8.39a.307.307 0 00-.118.236v1.353c0 .074.03.148.088.206a.29.29 0 00.206.089h2.281z" fill="#c5c5c5"/><path d="M3.987 6.065c.736 0 1.325-.603 1.325-1.325 0-.735-.604-1.324-1.325-1.324-.736 0-1.324.603-1.324 1.324-.015.722.588 1.325 1.324 1.325zm0-2.075c.412 0 .736.338.736.736a.738.738 0 01-.736.735.738.738 0 01-.736-.735.72.72 0 01.736-.736z" fill="#c5c5c5"/></svg>