<?xml version="1.0" encoding="utf-8"?>
<!-- Generator: Adobe Illustrator 24.3.0, SVG Export Plug-In . SVG Version: 6.00 Build 0)  -->
<svg version="1.1" id="Layer_1" xmlns="http://www.w3.org/2000/svg" xmlns:xlink="http://www.w3.org/1999/xlink" x="0px" y="0px"
	 width="354.3px" height="354.3px" viewBox="0 0 354.3 354.3" style="enable-background:new 0 0 354.3 354.3;" xml:space="preserve"
	>
<path d="M112.1,158.9c-8-1.6-16.2-3.5-24.4-4.3v11.6c0,1.4,1.1,2.6,2.5,2.6h19.3c1.4,0,2.5-1.3,2.5-2.6V158.9z M115.6,74.9
	c20.5-0.9,40.9-2,61.4-2c20.5,0,41,1.1,61.4,2c-5.7-10.9-12.9-24.1-19.6-25.7c-6-1.4-23.8-2.1-41.8-2.1c-18,0-35.8,0.7-41.8,2.1
	C128.5,50.8,121.4,64.1,115.6,74.9z M99.7,93.1l14.2,9c21-1.2,42-3.4,63-3.4s42,2.2,63,3.4l14.2-9c-1.7-1.3-3.6-2.5-5.5-3.6
	c-23.9-0.8-47.8-2.4-71.8-2.4c-24,0-47.8,1.5-71.8,2.4C103.3,90.6,101.5,91.8,99.7,93.1z M87.8,116.6c6.1,2.6,12.4,3.4,19,3.4
	c-0.7-2.3-1.2-4.5-1.5-6.7L90.6,104C89,107.5,88,111.6,87.8,116.6z M266.2,131.5c-9.4,2.8-19.4,2.9-29.2,2.3
	c-17.8,9.8-40.2,10.8-60.1,10.8c-19.5,0-42.7-1.2-60.1-10.8c-9.7,0.6-19.7,0.5-29.2-2.3l0,8.8c7.6,0.7,15.7,2.4,23.5,4
	c23.1,4.7,42.2,4,65.7,4c15.1,0,29.2-0.1,42.8-0.4c14.6-0.3,31.2-6.1,46.5-7.5L266.2,131.5z M248.7,113.4c-0.3,2.2-0.8,4.4-1.5,6.7
	c6.5-0.1,12.9-0.9,19-3.4c-0.1-5-1.1-9.1-2.7-12.6L248.7,113.4z M231.5,120.7c0.9-1.7,1.6-3.3,2.1-4.9c0.3-0.7-51.4-3-56.7-3
	c-18.9,0-37.8,1.8-56.7,3c0.7,1.8,1.2,3.2,2.1,4.9c16.4,9.1,36.1,9.7,54.5,9.7C195.5,130.5,215.1,129.8,231.5,120.7z M266.3,154.5
	c-8.1,0.9-16.3,2.7-24.4,4.3v7.3c0,1.4,1.1,2.6,2.5,2.6h19.3c1.5,0,2.5-1.2,2.5-2.6V154.5z M56.6,293.1c-15.6,0-28.3-12.7-28.3-28.3
	c0-15.6,12.7-28.3,28.3-28.3l166.7,6c3.1,0.1,5.7-1.5,6.9-4.3c7.9-17.2,23.9-30.1,43.3-30.1c21.4,0,38.6,8.3,50.5,26.2
	c4.1,6.3,1.2,11.3-3.4,15.9l-41.8,1.6l-7.5,12.9l7.5,12.9l41.8,1.6c4.5,4.5,7.5,9.7,3.4,15.9c-11.9,17.9-29.1,26.2-50.5,26.2
	c-19.4,0-35.4-12.9-43.3-30.1c-1.3-2.8-3.9-4.4-6.9-4.3L56.6,293.1z M56.6,250.6c-7.8,0-14.2,6.3-14.2,14.2
	c0,7.9,6.3,14.2,14.2,14.2l166.2-6c8.8-0.3,16.6,4.5,20.3,12.5c5.6,12.1,16.6,21.8,30.5,21.8c13.7,0,25.4-3.9,34.5-14.3l-37.5-1.4
	l-15.4-26.7l15.4-26.8l37.5-1.4c-9.1-10.4-20.8-14.3-34.4-14.3c-13.8,0-24.9,9.7-30.5,21.8c-3.7,8-11.5,12.8-20.3,12.5L56.6,250.6z
	 M126.3,161.4v4.8c0,9.1-7.5,16.8-16.7,16.8H90.3c-9.2,0-16.7-7.6-16.7-16.8c0-16.2,0.1-32.3,0.1-48.4c0-11.5,3.2-20.1,8.2-26.7
	c2.2-2.9,4.6-5.4,7.3-7.6l-14.5-3.6L78.1,66l23.1,5.8c6.5-12.2,16.4-33,30.8-36.4c7.1-1.7,26.2-2.5,45-2.5s38,0.8,45,2.5
	c14.4,3.4,24.2,24.2,30.8,36.4l23.1-5.8l3.4,13.7l-14.5,3.6c2.7,2.2,5.1,4.7,7.3,7.6c5,6.7,8.2,15.2,8.2,26.7
	c0,16.2,0.1,32.3,0.1,48.5c0,9.2-7.5,16.8-16.7,16.8h-19.3c-9.2,0-16.7-7.7-16.7-16.8v-4.8c-15.3,1.9-35,1.1-50.7,1.1
	C161.3,162.4,141.6,163.3,126.3,161.4z"/>
</svg>
