<?xml version="1.0" encoding="utf-8"?>
<!-- Generator: Adobe Illustrator 24.3.0, SVG Export Plug-In . SVG Version: 6.00 Build 0)  -->
<svg version="1.1" id="Layer_1" xmlns="http://www.w3.org/2000/svg" xmlns:xlink="http://www.w3.org/1999/xlink" x="0px" y="0px"
	 width="354.3px" height="354.3px" viewBox="0 0 354.3 354.3" style="enable-background:new 0 0 354.3 354.3;" xml:space="preserve"
	>
<path d="M257.5,304.2V315c0,2.8,2.3,5.3,5.1,5.3h24.4c2.9,0,5.1-2.4,5.1-5.3v-16.8C280.6,299.1,268.9,301.9,257.5,304.2
	 M258.3,201.3c-5.1-9.5-16.9-33.9-27.7-36.5c-7.8-1.8-30.5-2.8-53.5-2.8c-22.9,0-45.7,0.9-53.4,2.7c-10.8,2.6-22.5,26.9-27.7,36.5
	c27-1.1,54-2.7,81.1-2.7C204.3,198.6,231.2,200.2,258.3,201.3z M278.4,222.5c-3-2.5-6.3-4.7-9.7-6.7c-30.5-1.1-60.9-3-91.5-3
	s-61,2-91.5,3c-3.4,2-6.7,4.2-9.7,6.7l20.8,13.1c26.8-1.5,53.5-4.3,80.4-4.3c26.9,0,53.6,2.8,80.4,4.3L278.4,222.5z M292.1,253.3
	c-0.1-8.2-1.8-14.6-4.6-19.8l-21.3,13.4c-0.4,3.9-1.4,7.8-2.8,11.4C273.4,258.4,283,257.4,292.1,253.3z M102.9,249.5
	c0.8,3.3,2.2,6.4,3.8,9.3c21.5,11.9,46.3,12.8,70.5,12.8c24.2,0,49-1,70.5-12.8c1.6-2.9,3-6.1,3.8-9.3c-24.8-1.5-49.5-4-74.3-4
	S127.6,247.9,102.9,249.5z M90.8,258.3c-1.4-3.7-2.4-7.5-2.8-11.4l-21.3-13.4c-2.8,5.2-4.5,11.7-4.6,19.8
	C71.3,257.4,80.9,258.4,90.8,258.3z M62.1,298.1V315c0,2.8,2.2,5.3,5.1,5.3h24.4c2.8,0,5.1-2.5,5.1-5.3v-10.8
	C85.4,301.9,73.7,299.1,62.1,298.1z M70,209.1l-22.2-5.5l3.4-13.7l30.7,7.7c8.3-15.2,20.5-42.3,38.4-46.5c8.9-2.1,32.9-3.1,56.7-3.1
	c23.8,0,47.9,1,56.7,3.1c17.9,4.3,30.2,31.3,38.4,46.5l30.7-7.7l3.4,13.7l-22.2,5.5c15,11.1,21.9,25.6,22,44.4
	c0.1,20.5,0.1,40.9,0.1,61.4c0,10.6-8.7,19.4-19.3,19.4h-24.4c-10.6,0-19.3-8.9-19.3-19.4v-8.3c-19.9,2.9-45.8,1.6-66.2,1.6
	c-20.4,0-46.3,1.2-66.2-1.6v8.3c0,10.6-8.7,19.4-19.3,19.4H67.3c-10.6,0-19.3-8.8-19.3-19.4c0-20.5,0.1-40.9,0.1-61.4
	C48.1,234.7,55,220.3,70,209.1z M185.2,104.5c17.3-2.8,33.1-11,45.6-23.4c12.4-12.4,20.6-28.2,23.4-45.6
	c-17.3,2.8-33.1,11-45.6,23.4C196.2,71.3,188,87.1,185.2,104.5z M168.8,104.1c-2.3-9.8-7.2-18.6-14.3-25.7
	c-7.1-7.1-15.9-12-25.7-14.3c2.3,9.8,7.2,18.6,14.3,25.7C150.2,97,159,101.9,168.8,104.1z M184.3,133.7h-14.2v-14.9
	c-14.4-2.7-26.5-8.5-37-18.9c-15.6-15.6-18.9-30.7-20.2-51.6c20.8,1.3,36.1,4.6,51.6,20.2c4.7,4.7,8.5,9.9,11.6,15.4
	c4.9-13.1,12.6-25,22.5-35c20.9-20.9,42.7-27.2,71.2-29c-1.8,28.5-8.1,50.3-29,71.2c-15.7,15.7-34.7,24.7-56.5,27.9V133.7z
	 M231.5,293.6c19.3-0.4,40.6-8.1,60.8-9.7l0-15.4c-12.6,4.3-26.1,4.5-39.3,3.6c-22.8,12.6-50.2,13.7-75.7,13.7
	c-25.5,0-53-1.2-75.7-13.7c-13.2,0.9-26.6,0.7-39.3-3.6l0,15.5c20.1,1.6,41.5,9.3,60.8,9.7c17.4,0.3,35.4,0.5,54.3,0.5
	C196.1,294.2,214,294,231.5,293.6z"/>
</svg>
